<?xml version="1.0" encoding="utf-8"?>
<!-- Generator: Adobe Illustrator 20.1.0, SVG Export Plug-In . SVG Version: 6.00 Build 0)  -->
<svg version="1.1" xmlns="http://www.w3.org/2000/svg" xmlns:xlink="http://www.w3.org/1999/xlink" x="0px" y="0px"
	 viewBox="0 0 1000 1000" style="enable-background:new 0 0 1000 1000;" xml:space="preserve">
<g id="Layer_5">
	<rect x="-53.5" y="-53.5" style="fill:#FFFFFF;" width="1107" height="1107"/>
</g>
<g id="Layer_2">
	<g>
		<g>
			<rect x="488" y="419.1" style="fill:#FFFFFF;" width="19.7" height="161.7"/>
			<path style="fill:#4856A2;" d="M507.6,584.4H488c-1.9,0-3.5-1.6-3.5-3.5V419.1c0-1.9,1.6-3.5,3.5-3.5h19.7c1.9,0,3.5,1.6,3.5,3.5
				v161.7C511.1,582.8,509.5,584.4,507.6,584.4z M491.5,577.4h12.7V422.6h-12.7V577.4z"/>
		</g>
		<g>
			<polygon style="fill:#FFFFFF;" points="431.1,460.3 531.2,460.3 531.2,508.7 431.1,508.7 404.3,484.5 			"/>
			<path style="fill:#4856A2;" d="M531.2,512.2H431.1c-0.9,0-1.7-0.3-2.3-0.9L402,487.1c-0.7-0.7-1.2-1.6-1.2-2.6s0.4-1.9,1.2-2.6
				l26.8-24.2c0.6-0.6,1.5-0.9,2.3-0.9h100.1c1.9,0,3.5,1.6,3.5,3.5v48.4C534.7,510.7,533.1,512.2,531.2,512.2z M432.5,505.2h95.2
				v-41.4h-95.2l-22.9,20.7L432.5,505.2z"/>
		</g>
		<g>
			<polygon style="fill:#FFFFFF;" points="568.9,484.5 468.2,484.5 468.2,436.1 568.9,436.1 595.7,460.3 			"/>
			<path style="fill:#4856A2;" d="M568.9,488H468.2c-1.9,0-3.5-1.6-3.5-3.5v-48.4c0-1.9,1.6-3.5,3.5-3.5h100.6
				c0.9,0,1.7,0.3,2.3,0.9l26.8,24.2c0.7,0.7,1.2,1.6,1.2,2.6s-0.4,1.9-1.2,2.6l-26.8,24.2C570.6,487.7,569.7,488,568.9,488z
				 M471.7,481h95.8l22.9-20.7l-22.9-20.7h-95.8V481z"/>
		</g>
	</g>
	<g>
		<g>
			<g>
				<path style="fill:#FFFFFF;" d="M209.8,459.1c0-18.1-14.7-32.8-32.8-32.8s-32.8,14.7-32.8,32.8s32.8,84.3,32.8,84.3
					S209.8,477.2,209.8,459.1z"/>
				<path style="fill:#4856A2;" d="M176.9,546.9c-1.3,0-2.5-0.8-3.1-1.9c-1.4-2.7-33.2-67.1-33.2-85.9c0-20,16.3-36.3,36.3-36.3
					c20,0,36.3,16.3,36.3,36.3c0,8-5.6,25-16.7,50.4c-8.2,18.7-16.4,35.3-16.5,35.5C179.5,546.1,178.3,546.9,176.9,546.9z
					 M176.9,429.7c-16.2,0-29.3,13.2-29.3,29.3c0,12.8,19,54.8,29.3,76.3c10.4-21.6,29.3-63.6,29.3-76.3
					C206.3,442.9,193.1,429.7,176.9,429.7z"/>
			</g>
			<g>
				<circle style="fill:#FFFFFF;" cx="176.9" cy="462" r="15.8"/>
				<path style="fill:#4856A2;" d="M176.9,481.3c-10.7,0-19.3-8.7-19.3-19.3s8.7-19.3,19.3-19.3c10.7,0,19.3,8.7,19.3,19.3
					S187.6,481.3,176.9,481.3z M176.9,449.6c-6.8,0-12.3,5.5-12.3,12.3s5.5,12.3,12.3,12.3c6.8,0,12.3-5.5,12.3-12.3
					S183.7,449.6,176.9,449.6z"/>
			</g>
		</g>
		<g>
			<ellipse style="fill:#FFFFFF;" cx="176.9" cy="564.4" rx="32.8" ry="9.4"/>
			<path style="fill:#4856A2;" d="M176.9,577.3c-13.5,0-36.3-2.7-36.3-12.9c0-10.2,22.8-12.9,36.3-12.9s36.3,2.7,36.3,12.9
				C213.3,574.6,190.4,577.3,176.9,577.3z M147.7,564.4c1.5,1.9,11.1,5.9,29.2,5.9c18.1,0,27.7-4,29.2-5.9
				c-1.5-1.9-11.1-5.9-29.2-5.9C158.8,558.5,149.2,562.5,147.7,564.4z M206.3,564.6L206.3,564.6L206.3,564.6z"/>
		</g>
	</g>
	<g>
		<g>
			<g>
				<path style="fill:#4856A2;" d="M882.1,570.8H756.6c-1.9,0-3.5-1.6-3.5-3.5s1.6-3.5,3.5-3.5h122V478H738v49.6
					c4.7-4.9,11.3-8,18.6-8c14.1,0,25.6,11.5,25.6,25.6c0,1.9-1.6,3.5-3.5,3.5s-3.5-1.6-3.5-3.5c0-10.2-8.3-18.6-18.6-18.6
					S738,535,738,545.2c0,1.9-1.6,3.5-3.5,3.5s-3.5-1.6-3.5-3.5v-70.7c0-1.9,1.6-3.5,3.5-3.5h147.6c1.9,0,3.5,1.6,3.5,3.5v92.8
					C885.6,569.2,884,570.8,882.1,570.8z"/>
			</g>
			<g>
				<path style="fill:#4856A2;" d="M756.6,570.8c-14.1,0-25.6-11.5-25.6-25.6s11.5-25.6,25.6-25.6c14.1,0,25.6,11.5,25.6,25.6
					c0,1.9-1.6,3.5-3.5,3.5s-3.5-1.6-3.5-3.5c0-10.2-8.3-18.6-18.6-18.6S738,535,738,545.2s8.3,18.6,18.6,18.6
					c1.9,0,3.5,1.6,3.5,3.5S758.5,570.8,756.6,570.8z"/>
			</g>
			<g>
				<path style="fill:#FFFFFF;" d="M756.6,445.1c-12.2,0-22.1,9.9-22.1,22.1v78.1c0-12.2,9.9-22.1,22.1-22.1s22.1,9.9,22.1,22.1
					v-78.1C778.6,454.9,768.8,445.1,756.6,445.1z"/>
				<path style="fill:#4856A2;" d="M778.6,548.7c-1.9,0-3.5-1.6-3.5-3.5c0-10.2-8.3-18.6-18.6-18.6S738,535,738,545.2
					c0,1.9-1.6,3.5-3.5,3.5s-3.5-1.6-3.5-3.5v-78.1c0-14.1,11.5-25.6,25.6-25.6c14.1,0,25.6,11.5,25.6,25.6v78.1
					C782.1,547.1,780.6,548.7,778.6,548.7z M756.6,448.6c-10.2,0-18.6,8.3-18.6,18.6v60.5c4.7-4.9,11.3-8,18.6-8s13.9,3.1,18.6,8
					v-60.5C775.1,456.9,766.8,448.6,756.6,448.6z"/>
			</g>
		</g>
		<g>
			<g>
				<path style="fill:#FFFFFF;" d="M856.9,457c0-13.4-10.9-24.3-24.3-24.3c-13.4,0-24.3,10.9-24.3,24.3c0,13.4,24.3,62.5,24.3,62.5
					S856.9,470.5,856.9,457z"/>
				<path style="fill:#4856A2;" d="M832.6,523c-1.3,0-2.5-0.8-3.1-1.9c-2.5-5.1-24.7-50.2-24.7-64c0-15.4,12.5-27.8,27.8-27.8
					c15.3,0,27.8,12.5,27.8,27.8c0,13.9-22.2,58.9-24.7,64C835.1,522.3,833.9,523,832.6,523z M832.6,436.2
					c-11.5,0-20.8,9.3-20.8,20.8c0,9,13,38.1,20.8,54.5c7.8-16.3,20.8-45.5,20.8-54.5C853.4,445.6,844.1,436.2,832.6,436.2z"/>
			</g>
			<g>
				<circle style="fill:#FFFFFF;" cx="832.6" cy="459.2" r="11.7"/>
				<path style="fill:#4856A2;" d="M832.6,474.4c-8.4,0-15.2-6.8-15.2-15.2c0-8.4,6.8-15.2,15.2-15.2s15.2,6.8,15.2,15.2
					C847.8,467.6,841,474.4,832.6,474.4z M832.6,450.9c-4.5,0-8.2,3.7-8.2,8.2c0,4.5,3.7,8.2,8.2,8.2c4.5,0,8.2-3.7,8.2-8.2
					C840.8,454.6,837.1,450.9,832.6,450.9z"/>
			</g>
		</g>
	</g>
	<g>
		<g>
			<g>
				<polygon style="fill:#FFFFFF;" points="460.9,236.4 382.7,253.1 382.7,124.1 460.9,107.5 				"/>
				<path style="fill:#4856A2;" d="M382.7,256.6c-0.8,0-1.6-0.3-2.2-0.8c-0.8-0.7-1.3-1.7-1.3-2.7V124.1c0-1.7,1.2-3.1,2.8-3.4
					l78.2-16.6c1-0.2,2.1,0,2.9,0.7c0.8,0.7,1.3,1.7,1.3,2.7v128.9c0,1.7-1.2,3.1-2.8,3.4l-78.2,16.6
					C383.2,256.5,382.9,256.6,382.7,256.6z M386.2,127v121.8l71.2-15.2V111.8L386.2,127z M460.9,236.4L460.9,236.4L460.9,236.4z"/>
			</g>
			<g>
				<polygon style="fill:#FFFFFF;" points="539.1,253.1 460.9,236.4 460.9,107.5 539.1,124.1 				"/>
				<path style="fill:#4856A2;" d="M539.1,256.6c-0.2,0-0.5,0-0.7-0.1l-78.2-16.6c-1.6-0.3-2.8-1.8-2.8-3.4V107.5
					c0-1.1,0.5-2.1,1.3-2.7c0.8-0.7,1.9-0.9,2.9-0.7l78.2,16.6c1.6,0.3,2.8,1.8,2.8,3.4v128.9c0,1.1-0.5,2.1-1.3,2.7
					C540.7,256.3,539.9,256.6,539.1,256.6z M464.4,233.6l71.2,15.2V127l-71.2-15.2V233.6z"/>
			</g>
			<g>
				<polygon style="fill:#FFFFFF;" points="617.3,236.4 539.1,253.1 539.1,124.1 617.3,107.5 				"/>
				<path style="fill:#4856A2;" d="M539.1,256.6c-0.8,0-1.6-0.3-2.2-0.8c-0.8-0.7-1.3-1.7-1.3-2.7V124.1c0-1.7,1.2-3.1,2.8-3.4
					l78.2-16.6c1-0.2,2.1,0,2.9,0.7c0.8,0.7,1.3,1.7,1.3,2.7v128.9c0,1.7-1.2,3.1-2.8,3.4l-78.2,16.6
					C539.6,256.5,539.3,256.6,539.1,256.6z M542.6,127v121.8l71.2-15.2V111.8L542.6,127z M617.3,236.4L617.3,236.4L617.3,236.4z"/>
			</g>
		</g>
		<g>
			<g>
				<path style="fill:#FFFFFF;" d="M605.4,274.9L605.4,274.9c-2.8,0.9-5.9-0.7-6.8-3.5l-22.5-70.2c-0.9-2.8,0.7-5.9,3.5-6.8h0
					c2.8-0.9,5.9,0.7,6.8,3.5l22.5,70.2C609.8,271,608.2,274,605.4,274.9z"/>
				<path style="fill:#4856A2;" d="M603.7,278.7c-1.4,0-2.8-0.3-4.1-1c-2.1-1.1-3.7-2.9-4.4-5.2l-22.5-70.2
					c-0.7-2.3-0.5-4.7,0.6-6.8c1.1-2.1,2.9-3.7,5.2-4.4c2.3-0.7,4.7-0.5,6.8,0.6c2.1,1.1,3.7,2.9,4.4,5.2l22.5,70.2
					c1.5,4.7-1.1,9.7-5.8,11.2C605.6,278.6,604.7,278.7,603.7,278.7z M581.3,197.7c-0.2,0-0.4,0-0.6,0.1c-0.6,0.2-1,0.7-1.1,0.9
					c-0.1,0.3-0.3,0.8-0.1,1.4l22.5,70.2c0.2,0.6,0.7,1,0.9,1.1c0.3,0.1,0.8,0.3,1.4,0.1v0c1-0.3,1.5-1.4,1.2-2.4l-22.5-70.2
					c-0.2-0.6-0.7-1-0.9-1.1C582,197.9,581.6,197.7,581.3,197.7z"/>
			</g>
			<g>
				
					<ellipse transform="matrix(0.9524 -0.305 0.305 0.9524 -33.0076 186.707)" style="fill:#FFFFFF;" cx="581.1" cy="199" rx="30.4" ry="30.4"/>
				<path style="fill:#4856A2;" d="M581,232.9c-5.3,0-10.6-1.3-15.5-3.8c-8-4.1-14-11.2-16.8-19.8c-2.8-8.6-2-17.8,2.1-25.8
					c4.1-8,11.2-14,19.8-16.8s17.8-2,25.8,2.1c8,4.1,14,11.2,16.8,19.8c5.7,17.8-4.1,36.9-21.9,42.6
					C588,232.3,584.5,232.9,581,232.9z M581.1,172.1c-2.8,0-5.5,0.4-8.2,1.3c-6.8,2.2-12.4,6.9-15.7,13.3
					c-3.3,6.4-3.9,13.7-1.7,20.5c2.2,6.8,6.9,12.4,13.3,15.7c6.4,3.3,13.7,3.9,20.5,1.7c14.1-4.5,21.9-19.7,17.4-33.8l0,0
					c-2.2-6.8-6.9-12.4-13.3-15.7C589.5,173.1,585.3,172.1,581.1,172.1z"/>
			</g>
			<g>
				
					<ellipse transform="matrix(0.9524 -0.305 0.305 0.9524 -33.0076 186.707)" style="fill:#FFFFFF;" cx="581.1" cy="199" rx="18.8" ry="18.8"/>
				<path style="fill:#4856A2;" d="M581,221.3c-3.5,0-7-0.8-10.2-2.5c-5.3-2.7-9.2-7.4-11-13c-1.8-5.7-1.3-11.7,1.4-17
					s7.4-9.2,13-11c11.7-3.8,24.3,2.7,28.1,14.5c3.8,11.7-2.7,24.3-14.5,28.1C585.6,221,583.3,221.3,581,221.3z M581.1,183.7
					c-1.5,0-3.1,0.2-4.7,0.7c-3.9,1.2-7.1,3.9-9,7.6c-1.9,3.6-2.2,7.8-1,11.7c2.6,8.1,11.2,12.5,19.3,9.9
					c8.1-2.6,12.5-11.2,9.9-19.3l0,0C593.6,187.8,587.5,183.7,581.1,183.7z"/>
			</g>
			<g>
				<path style="fill:#4856A2;" d="M572.4,207.7c-1.5,0-2.9-0.9-3.3-2.4c-2.5-7.9,1.8-16.3,9.7-18.8c1.8-0.6,3.8,0.4,4.4,2.3
					c0.6,1.8-0.4,3.8-2.3,4.4c-4.2,1.3-6.5,5.8-5.1,10c0.6,1.8-0.4,3.8-2.3,4.4C573.1,207.6,572.7,207.7,572.4,207.7z"/>
			</g>
		</g>
	</g>
	<g>
		<g>
			<path style="fill:#4856A2;" d="M183.2,272.5h-43.1c-12.4,0-22.5-10.1-22.5-22.5V132.7c0-12.4,10.1-22.5,22.5-22.5h43.1
				c12.4,0,22.5,10.1,22.5,22.5V250C205.7,262.4,195.6,272.5,183.2,272.5z M140.2,117.2c-8.5,0-15.5,6.9-15.5,15.5V250
				c0,8.5,6.9,15.5,15.5,15.5h43.1c8.5,0,15.5-6.9,15.5-15.5V132.7c0-8.5-6.9-15.5-15.5-15.5H140.2z"/>
		</g>
		<g>
			<path style="fill:#4856A2;" d="M202.2,145.4h-81c-1.9,0-3.5-1.6-3.5-3.5s1.6-3.5,3.5-3.5h81c1.9,0,3.5,1.6,3.5,3.5
				S204.2,145.4,202.2,145.4z"/>
		</g>
		<g>
			<path style="fill:#4856A2;" d="M202.2,244.4h-81c-1.9,0-3.5-1.6-3.5-3.5s1.6-3.5,3.5-3.5h81c1.9,0,3.5,1.6,3.5,3.5
				S204.2,244.4,202.2,244.4z"/>
		</g>
		<g>
			<path style="fill:#4856A2;" d="M168.4,257.8h-13.3c-1.9,0-3.5-1.6-3.5-3.5s1.6-3.5,3.5-3.5h13.3c1.9,0,3.5,1.6,3.5,3.5
				S170.3,257.8,168.4,257.8z"/>
		</g>
		<g>
			<path style="fill:#4856A2;" d="M177.2,244.4c-1.6,0-3-1.1-3.4-2.6l-25.3-99c-0.5-1.9,0.7-3.8,2.5-4.3c1.9-0.5,3.8,0.7,4.3,2.5
				l25.3,99c0.5,1.9-0.7,3.8-2.5,4.3C177.8,244.3,177.5,244.4,177.2,244.4z"/>
		</g>
		<g>
			<path style="fill:#4856A2;" d="M121.2,244.4c-0.8,0-1.6-0.3-2.3-0.9c-1.5-1.3-1.6-3.5-0.3-4.9l43.3-49.5c1.3-1.5,3.5-1.6,4.9-0.3
				c1.5,1.3,1.6,3.5,0.3,4.9l-43.3,49.5C123.2,243.9,122.2,244.4,121.2,244.4z"/>
		</g>
		<g>
			<path style="fill:#4856A2;" d="M202.2,194.9c-0.9,0-1.8-0.4-2.5-1.1l-47.1-49.5c-1.3-1.4-1.3-3.6,0.1-4.9
				c1.4-1.3,3.6-1.3,4.9,0.1l47.1,49.5c1.3,1.4,1.3,3.6-0.1,4.9C204,194.5,203.1,194.9,202.2,194.9z"/>
		</g>
		<g>
			<path style="fill:#4856A2;" d="M170.8,219.1c-1.3,0-2.5-0.7-3.1-1.9c-0.9-1.7-0.2-3.8,1.5-4.7l31.4-16.4c1.7-0.9,3.8-0.2,4.7,1.5
				c0.9,1.7,0.2,3.8-1.5,4.7l-31.4,16.4C171.9,219,171.3,219.1,170.8,219.1z"/>
		</g>
		<g>
			<circle style="fill:#FFFFFF;" cx="207.3" cy="177.6" r="25.4"/>
			<path style="fill:#4856A2;" d="M207.3,206.5c-15.9,0-28.9-12.9-28.9-28.9s12.9-28.9,28.9-28.9s28.9,12.9,28.9,28.9
				S223.2,206.5,207.3,206.5z M207.3,155.7c-12.1,0-21.9,9.8-21.9,21.9s9.8,21.9,21.9,21.9s21.9-9.8,21.9-21.9
				S219.4,155.7,207.3,155.7z"/>
		</g>
		<g>
			<polygon style="fill:#FFFFFF;" points="206.4,194.2 202.1,184.2 191.4,182.4 215.8,166.9 215.8,166.9 			"/>
			<path style="fill:#4856A2;" d="M206.4,197.7c-1.4,0-2.7-0.8-3.2-2.1l-3.6-8.3l-8.9-1.5c-1.4-0.2-2.6-1.3-2.8-2.8
				c-0.3-1.4,0.3-2.9,1.6-3.6l24.4-15.5c1.3-0.8,2.9-0.7,4,0.2s1.6,2.5,1.1,3.9l-9.3,27.3c-0.5,1.4-1.7,2.3-3.2,2.4
				C206.5,197.7,206.5,197.7,206.4,197.7z M200.9,180.5l1.8,0.3c1.2,0.2,2.1,1,2.6,2.1l0.7,1.7l3.2-9.3L200.9,180.5z"/>
		</g>
	</g>
	<g>
		<g>
			<g>
				<circle style="fill:#FFFFFF;" cx="800.5" cy="191.4" r="66"/>
				<path style="fill:#4856A2;" d="M800.5,260.9c-38.3,0-69.5-31.2-69.5-69.5s31.2-69.5,69.5-69.5S870,153,870,191.4
					S838.8,260.9,800.5,260.9z M800.5,128.9c-34.5,0-62.5,28-62.5,62.5s28,62.5,62.5,62.5s62.5-28,62.5-62.5
					S834.9,128.9,800.5,128.9z"/>
			</g>
			<g>
				<ellipse style="fill:#FFFFFF;" cx="800.5" cy="191.4" rx="35.9" ry="66"/>
				<path style="fill:#4856A2;" d="M800.5,260.9c-22.1,0-39.4-30.5-39.4-69.5s17.3-69.5,39.4-69.5s39.4,30.5,39.4,69.5
					S822.6,260.9,800.5,260.9z M800.5,128.9c-17.6,0-32.4,28.6-32.4,62.5s14.9,62.5,32.4,62.5s32.4-28.6,32.4-62.5
					S818.1,128.9,800.5,128.9z"/>
			</g>
			<g>
				<path style="fill:#4856A2;" d="M800.5,260.9c-1.9,0-3.5-1.6-3.5-3.5v-132c0-1.9,1.6-3.5,3.5-3.5s3.5,1.6,3.5,3.5v132
					C804,259.3,802.4,260.9,800.5,260.9z"/>
			</g>
			<g>
				<path style="fill:#4856A2;" d="M866.5,194.9h-132c-1.9,0-3.5-1.6-3.5-3.5s1.6-3.5,3.5-3.5h132c1.9,0,3.5,1.6,3.5,3.5
					S868.4,194.9,866.5,194.9z"/>
			</g>
			<g>
				<path style="fill:#4856A2;" d="M851.5,237.2c-0.7,0-1.3-0.2-1.9-0.6c-12-8-29.9-12.6-49.1-12.6s-37,4.6-49.1,12.6
					c-1.5,1-3.5,0.7-4.6-0.7c-10.2-12.4-15.8-28-15.8-44.1c0-15,4.7-29.4,13.7-41.4c1.1-1.5,3.3-1.9,4.9-0.7
					c11.8,8.7,30.9,13.9,50.9,13.9c20.1,0,39.1-5.2,50.9-13.9c1.6-1.1,3.7-0.8,4.9,0.7c8.9,12,13.7,26.4,13.7,41.4
					c0,16.1-5.6,31.7-15.8,44.1C853.5,236.8,852.5,237.2,851.5,237.2z M800.5,217.1c19.1,0,37.2,4.3,50.2,12
					c8-10.7,12.3-23.8,12.3-37.2c0-12.4-3.6-24.2-10.4-34.5c-13.1,8.4-31.9,13.2-52.1,13.2c-20.3,0-39-4.8-52.1-13.2
					c-6.8,10.2-10.4,22.1-10.4,34.5c0,13.4,4.4,26.5,12.3,37.2C763.3,221.4,781.4,217.1,800.5,217.1z"/>
			</g>
		</g>
		<g>
			<g>
				<path style="fill:#FFFFFF;" d="M876.6,158.1c7.3-7.3,7.3-19.1,0-26.4c-7.3-7.3-19.1-7.3-26.4,0c-7.3,7.3-20.7,47.1-20.7,47.1
					S869.3,165.4,876.6,158.1z"/>
				<path style="fill:#4856A2;" d="M829.5,182.3c-0.9,0-1.8-0.4-2.5-1c-0.9-0.9-1.3-2.3-0.8-3.6c1.4-4.2,13.9-40.8,21.5-48.4
					c4.2-4.2,9.8-6.5,15.7-6.5c5.9,0,11.5,2.3,15.7,6.5c4.2,4.2,6.5,9.8,6.5,15.7s-2.3,11.5-6.5,15.7l0,0
					c-7.6,7.6-44.3,20.1-48.4,21.5C830.2,182.2,829.9,182.3,829.5,182.3z M863.4,129.8c-4.1,0-7.9,1.6-10.7,4.4
					c-4.2,4.2-12.1,23.9-17.5,38.9c15-5.4,34.7-13.3,38.9-17.5c2.9-2.9,4.4-6.7,4.4-10.7c0-4.1-1.6-7.9-4.4-10.7
					C871.2,131.3,867.4,129.8,863.4,129.8z M876.6,158.1L876.6,158.1L876.6,158.1z"/>
			</g>
			<g>
				
					<ellipse transform="matrix(0.7071 -0.7071 0.7071 0.7071 149.2482 652.4671)" style="fill:#FFFFFF;" cx="862.2" cy="146.1" rx="9" ry="9"/>
				<path style="fill:#4856A2;" d="M862.2,158.6c-3.2,0-6.4-1.2-8.8-3.7c-2.4-2.4-3.7-5.5-3.7-8.8c0-3.3,1.3-6.5,3.7-8.8
					c4.9-4.9,12.8-4.9,17.7,0c2.4,2.4,3.7,5.5,3.7,8.8c0,3.3-1.3,6.5-3.7,8.8C868.6,157.3,865.4,158.6,862.2,158.6z M862.2,140.6
					c-1.4,0-2.8,0.5-3.9,1.6c-1,1-1.6,2.4-1.6,3.9s0.6,2.8,1.6,3.9c2.1,2.1,5.6,2.1,7.8,0l0,0c1-1,1.6-2.4,1.6-3.9s-0.6-2.8-1.6-3.9
					C865,141.1,863.6,140.6,862.2,140.6z"/>
			</g>
		</g>
	</g>
	<g>
		<g>
			<g>
				<polyline style="fill:#FFFFFF;" points="186.3,892.5 130.5,836.6 223.4,743.7 279.2,799.6 				"/>
				<path style="fill:#4856A2;" d="M186.3,896c-0.9,0-1.8-0.3-2.5-1L128,839.1c-0.7-0.7-1-1.5-1-2.5s0.4-1.8,1-2.5l92.9-92.9
					c1.4-1.4,3.6-1.4,5,0l55.9,55.9c1.4,1.4,1.4,3.6,0,4.9c-1.4,1.4-3.6,1.4-5,0l-53.4-53.4l-87.9,87.9l53.4,53.4
					c1.4,1.4,1.4,3.6,0,4.9C188.1,895.7,187.2,896,186.3,896z"/>
			</g>
			<g>
				
					<rect x="129.9" y="782.5" transform="matrix(0.7071 -0.7071 0.7071 0.7071 -514.6462 375.1635)" style="fill:#FFFFFF;" width="131.4" height="52.7"/>
				<path style="fill:#4856A2;" d="M167.7,877.4c-0.9,0-1.8-0.4-2.5-1L128,839.1c-1.4-1.4-1.4-3.6,0-4.9l92.9-92.9
					c1.4-1.4,3.6-1.4,4.9,0l37.2,37.2c0.7,0.7,1,1.5,1,2.5s-0.4,1.8-1,2.5l-92.9,92.9C169.5,877,168.6,877.4,167.7,877.4z
					 M135.4,836.6l32.3,32.3l87.9-87.9l-32.3-32.3L135.4,836.6z"/>
			</g>
			<g>
				<path style="fill:#4856A2;" d="M232.8,849.6c-0.9,0-1.8-0.3-2.5-1l-18.6-18.6c-1.4-1.4-1.4-3.6,0-4.9c1.4-1.4,3.6-1.4,4.9,0
					l18.6,18.6c1.4,1.4,1.4,3.6,0,4.9C234.6,849.2,233.7,849.6,232.8,849.6z"/>
			</g>
			<g>
				
					<rect x="85.9" y="748.8" transform="matrix(0.7071 -0.7071 0.7071 0.7071 -515.5272 312.0516)" style="fill:#FFFFFF;" width="66.1" height="59"/>
				<path style="fill:#4856A2;" d="M116.4,826.1c-0.9,0-1.8-0.4-2.5-1l-41.7-41.7c-1.4-1.4-1.4-3.6,0-4.9l46.8-46.8
					c1.3-1.3,3.6-1.3,5,0l41.7,41.7c1.4,1.4,1.4,3.6,0,4.9L118.9,825C118.2,825.7,117.3,826.1,116.4,826.1z M79.6,780.8l36.8,36.8
					l41.8-41.8L121.4,739L79.6,780.8z"/>
			</g>
			<g>
				
					<rect x="149.6" y="695.4" transform="matrix(0.7071 -0.7071 0.7071 0.7071 -462.0968 334.1832)" style="fill:#FFFFFF;" width="45.5" height="59"/>
				<path style="fill:#4856A2;" d="M177.1,765.3c-0.9,0-1.8-0.3-2.5-1l-41.7-41.7c-0.7-0.7-1-1.5-1-2.5s0.4-1.8,1-2.5l32.2-32.2
					c1.4-1.4,3.6-1.4,5,0l41.7,41.7c1.4,1.4,1.4,3.6,0,5l-32.2,32.2C178.9,765,178,765.3,177.1,765.3z M140.4,720.1l36.8,36.8
					l27.2-27.2l-36.8-36.8L140.4,720.1z"/>
			</g>
		</g>
		<g>
			<g>
				<path style="fill:#FFFFFF;" d="M254.7,712.7c0-13.4-10.9-24.3-24.3-24.3s-24.3,10.9-24.3,24.3c0,13.4,24.3,62.5,24.3,62.5
					S254.7,726.1,254.7,712.7z"/>
				<path style="fill:#4856A2;" d="M230.4,778.7c-1.3,0-2.5-0.8-3.1-1.9c-2.5-5.1-24.7-50.2-24.7-64c0-15.4,12.5-27.8,27.8-27.8
					s27.8,12.5,27.8,27.8c0,13.9-22.2,58.9-24.7,64C232.9,777.9,231.7,778.7,230.4,778.7z M230.4,691.8c-11.5,0-20.8,9.3-20.8,20.8
					c0,9,13,38.1,20.8,54.5c7.8-16.3,20.8-45.5,20.8-54.5C251.2,701.2,241.9,691.8,230.4,691.8z"/>
			</g>
			<g>
				<circle style="fill:#FFFFFF;" cx="230.4" cy="714.8" r="11.7"/>
				<path style="fill:#4856A2;" d="M230.4,730c-8.4,0-15.2-6.8-15.2-15.2c0-8.4,6.8-15.2,15.2-15.2s15.2,6.8,15.2,15.2
					C245.6,723.2,238.8,730,230.4,730z M230.4,706.6c-4.5,0-8.2,3.7-8.2,8.2c0,4.5,3.7,8.2,8.2,8.2s8.2-3.7,8.2-8.2
					C238.6,710.3,234.9,706.6,230.4,706.6z"/>
			</g>
		</g>
	</g>
	<g>
		<g>
			<g>
				<polygon style="fill:#FFFFFF;" points="808.3,866.4 749.7,840.3 749.7,743.8 808.3,778.3 				"/>
				<path style="fill:#4856A2;" d="M808.3,869.9c-0.5,0-1-0.1-1.4-0.3l-58.5-26.1c-1.3-0.6-2.1-1.8-2.1-3.2v-96.5
					c0-1.3,0.7-2.4,1.8-3s2.4-0.6,3.5,0l58.5,34.5c1.1,0.6,1.7,1.8,1.7,3v88.1c0,1.2-0.6,2.3-1.6,2.9
					C809.6,869.8,808.9,869.9,808.3,869.9z M753.2,838l51.5,23v-80.7l-51.5-30.4V838z"/>
			</g>
			<g>
				<polygon style="fill:#FFFFFF;" points="866.8,840.3 808.3,866.4 808.3,778.3 866.8,743.8 				"/>
				<path style="fill:#4856A2;" d="M808.3,869.9c-0.7,0-1.3-0.2-1.9-0.6c-1-0.6-1.6-1.8-1.6-2.9v-88.1c0-1.2,0.7-2.4,1.7-3
					l58.5-34.5c1.1-0.6,2.4-0.6,3.5,0c1.1,0.6,1.8,1.8,1.8,3v96.5c0,1.4-0.8,2.6-2.1,3.2l-58.5,26.1
					C809.2,869.8,808.7,869.9,808.3,869.9z M811.8,780.3V861l51.5-23v-88.1L811.8,780.3z M866.8,840.3L866.8,840.3L866.8,840.3z"/>
			</g>
			<g>
				<polygon style="fill:#FFFFFF;" points="749.7,840.3 691.2,874.8 691.2,769.9 749.7,743.8 				"/>
				<path style="fill:#4856A2;" d="M691.2,878.3c-0.6,0-1.2-0.2-1.7-0.5c-1.1-0.6-1.8-1.8-1.8-3V769.9c0-1.4,0.8-2.6,2.1-3.2
					l58.5-26.1c1.1-0.5,2.3-0.4,3.3,0.3c1,0.6,1.6,1.8,1.6,2.9v96.5c0,1.2-0.7,2.4-1.7,3L693,877.9
					C692.4,878.2,691.8,878.3,691.2,878.3z M694.7,772.2v96.5l51.5-30.4v-89.1L694.7,772.2z M749.7,840.3L749.7,840.3L749.7,840.3z"
					/>
			</g>
			<g>
				<polygon style="fill:#FFFFFF;" points="925.3,874.8 866.8,840.3 866.8,743.8 925.3,769.9 				"/>
				<path style="fill:#4856A2;" d="M925.3,878.3c-0.6,0-1.2-0.2-1.8-0.5L865,843.3c-1.1-0.6-1.7-1.8-1.7-3v-96.5
					c0-1.2,0.6-2.3,1.6-2.9c1-0.6,2.2-0.7,3.3-0.3l58.5,26.1c1.3,0.6,2.1,1.8,2.1,3.2v104.9c0,1.3-0.7,2.4-1.8,3
					C926.5,878.2,925.9,878.3,925.3,878.3z M870.3,838.3l51.5,30.4v-96.5l-51.5-23V838.3z"/>
			</g>
		</g>
		<g>
			<g>
				<path style="fill:#FFFFFF;" d="M858.3,729.9c0-13.4-10.9-24.3-24.3-24.3c-13.4,0-24.3,10.9-24.3,24.3
					c0,13.4,24.3,62.5,24.3,62.5S858.3,743.4,858.3,729.9z"/>
				<path style="fill:#4856A2;" d="M834,795.9L834,795.9c-1.3,0-2.5-0.8-3.1-1.9c-2.5-5.1-24.7-50.2-24.7-64
					c0-15.4,12.5-27.8,27.8-27.8c15.4,0,27.8,12.5,27.8,27.8c0,13.9-22.2,58.9-24.7,64C836.5,795.2,835.3,795.9,834,795.9z
					 M834,709.1c-11.5,0-20.8,9.3-20.8,20.8c0,9,13,38.1,20.8,54.5c7.8-16.3,20.8-45.5,20.8-54.5C854.8,718.4,845.5,709.1,834,709.1
					z"/>
			</g>
			<g>
				<circle style="fill:#FFFFFF;" cx="834" cy="732.1" r="11.7"/>
				<path style="fill:#4856A2;" d="M834,747.3c-8.4,0-15.2-6.8-15.2-15.2c0-8.4,6.8-15.2,15.2-15.2s15.2,6.8,15.2,15.2
					C849.2,740.5,842.4,747.3,834,747.3z M834,723.8c-4.5,0-8.2,3.7-8.2,8.2c0,4.5,3.7,8.2,8.2,8.2c4.5,0,8.2-3.7,8.2-8.2
					C842.2,727.5,838.5,723.8,834,723.8z"/>
			</g>
		</g>
	</g>
	<g>
		<g>
			<circle style="fill:#FFFFFF;" cx="500" cy="790.2" r="65.1"/>
			<path style="fill:#4856A2;" d="M500,858.8c-37.8,0-68.6-30.8-68.6-68.6c0-37.8,30.8-68.6,68.6-68.6c37.8,0,68.6,30.8,68.6,68.6
				C568.6,828,537.8,858.8,500,858.8z M500,728.7c-33.9,0-61.6,27.6-61.6,61.6c0,33.9,27.6,61.6,61.6,61.6s61.6-27.6,61.6-61.6
				C561.6,756.3,533.9,728.7,500,728.7z"/>
		</g>
		<g>
			<g>
				<polygon style="fill:#FFFFFF;" points="505.8,796 494.2,784.4 532.3,757.9 532.3,757.9 				"/>
				<path style="fill:#4856A2;" d="M505.8,799.5c-0.9,0-1.8-0.4-2.5-1l-11.6-11.6c-0.7-0.7-1.1-1.8-1-2.8c0.1-1,0.6-2,1.5-2.6
					l38.1-26.5c1.4-1,3.3-0.8,4.5,0.4c1.2,1.2,1.4,3.1,0.4,4.5L508.6,798c-0.6,0.8-1.5,1.4-2.6,1.5
					C506,799.5,505.9,799.5,505.8,799.5z M499.7,784.9l5.6,5.6l12.9-18.6L499.7,784.9z"/>
			</g>
			<g>
				<polygon style="fill:#FFFFFF;" points="494.2,784.4 505.8,796 467.7,822.5 467.7,822.5 				"/>
				<path style="fill:#4856A2;" d="M467.7,826c-0.9,0-1.8-0.3-2.5-1c-1.2-1.2-1.4-3.1-0.4-4.5l26.5-38.1c0.6-0.8,1.5-1.4,2.6-1.5
					c1-0.1,2.1,0.3,2.8,1l11.6,11.6c0.7,0.7,1.1,1.8,1,2.8c-0.1,1-0.6,2-1.5,2.6l-38.1,26.5C469.1,825.8,468.4,826,467.7,826z
					 M494.7,789.9l-12.9,18.6l18.6-12.9L494.7,789.9z"/>
			</g>
		</g>
		<g>
			<circle style="fill:#4856A2;" cx="500" cy="743.4" r="5.8"/>
		</g>
		<g>
			<circle style="fill:#4856A2;" cx="546.8" cy="790.2" r="5.8"/>
		</g>
		<g>
			<circle style="fill:#4856A2;" cx="500" cy="837.1" r="5.8"/>
		</g>
		<g>
			<circle style="fill:#4856A2;" cx="453.2" cy="790.2" r="5.8"/>
		</g>
	</g>
</g>
</svg>
